<?xml version="1.0" encoding="iso-8859-1"?>
<!-- Generator: Adobe Illustrator 19.0.0, SVG Export Plug-In . SVG Version: 6.00 Build 0)  -->
<svg version="1.1" id="Capa_1" xmlns="http://www.w3.org/2000/svg" xmlns:xlink="http://www.w3.org/1999/xlink" x="0px" y="0px"
	 viewBox="0 0 381.28 381.28" style="enable-background:new 0 0 381.28 381.28;" xml:space="preserve">
<path style="fill:#CE7419;" d="M28.56,327.32h324.08c12.415,0,22.48,10.047,22.48,22.44l0,0c0,12.393-10.065,22.44-22.48,22.44
	H28.56c-12.415,0-22.48-10.047-22.48-22.44l0,0C6.08,337.367,16.145,327.32,28.56,327.32z"/>
<g>
	<path style="fill:#FCBA29;" d="M28.56,114.68l106.48,69.84l55.6-131.44l55.6,131.44l106.48-69.84v212.64h-46H74.56h-46
		L28.56,114.68z"/>
	<path style="fill:#E99A23;" d="M190.64,53.08l55.6,131.44l106.48-69.84v212.64h-46H190.64V53.08z"/>
</g>
<g>
	<circle style="fill:#FCBA29;" cx="18.48" cy="98.28" r="18.48"/>
	<circle style="fill:#FCBA29;" cx="362.8" cy="100.28" r="18.48"/>
	<circle style="fill:#FCBA29;" cx="190.64" cy="31.08" r="22"/>
</g>
<g>
	<path style="fill:#CE7419;" d="M190.64,198.12l15.84,21.12l15.92,21.12l-15.92,21.12l-15.84,21.12l-15.84-21.12l-15.92-21.12
		l15.92-21.12L190.64,198.12z"/>
	<path style="fill:#CE7419;" d="M292.64,216.92L304,231.96l11.28,15.12L304,262.12l-11.36,15.04l-11.36-15.04L270,247.08
		l11.28-15.12L292.64,216.92z"/>
	<path style="fill:#CE7419;" d="M88.64,216.92L100,231.96l11.28,15.12L100,262.12l-11.36,15.04l-11.36-15.04l-11.36-15.04
		l11.36-15.12L88.64,216.92z"/>
</g>
<g>
</g>
<g>
</g>
<g>
</g>
<g>
</g>
<g>
</g>
<g>
</g>
<g>
</g>
<g>
</g>
<g>
</g>
<g>
</g>
<g>
</g>
<g>
</g>
<g>
</g>
<g>
</g>
<g>
</g>
</svg>
